# xmcd
#
# Track frame offsets:
#	150
#	10762
#	23003
#	35850
#	48744
#	63775
#	73307
#	85378
#	95699
#	106887
#	118921
#
# Disc length: 1713 seconds
#
# Revision: 1
# Processed by: cddbd v1.5.1PL2 Copyright (c) Steve Scherf et al.
# Submitted via: audiograbber 1.83.01
#
DISCID=9806af0b
DTITLE=The Tennessee Three - The Sound Must Go On
DYEAR=2006
DGENRE=Country
TTITLE0=You Walked Tall
TTITLE1=Folsom Prison Blues
TTITLE2=I Still Miss Someone
TTITLE3=Mad Dog 20 20 Vision
TTITLE4=Drum Time
TTITLE5=I've Got Stripes
TTITLE6=I Walk The Line
TTITLE7=There You Go
TTITLE8=Ring of Fire
TTITLE9=My Baby Walks All Over Me
TTITLE10=A Legend
EXTD=This is Johnny Cash's Band whom have made this recent cd to keep the sound
EXTD=behind Johnny Cash going.
EXTT0=Frank Dean - BMI
EXTT1=John R. Cash - House of Cash Music, BMI
EXTT2=John R. Cash - House of Cash Music, BMI
EXTT3=Bob Wootton - Country Is Music, LCC BMI
EXTT4=WS Holland - Country Is Music, LCC, BMI
EXTT5=John R. Cash - Unichappell Music, BMI
EXTT6=John R. Cash - House of Cash Music, BMI
EXTT7=John R. Cash - House of Cash Music, BMI
EXTT8=June Carter, Merle Kilgore - Painted Desert Music, BMI
EXTT9=Billy Mize - Owens Pub, BMI
EXTT10=WS Holland and Pete Collins - TN3
PLAYORDER=
